<?xml version="1.0" encoding="utf-8"?>
<!-- Generator: Adobe Illustrator 15.1.0, SVG Export Plug-In . SVG Version: 6.00 Build 0)  -->
<!DOCTYPE svg PUBLIC "-//W3C//DTD SVG 1.1//EN" "http://www.w3.org/Graphics/SVG/1.1/DTD/svg11.dtd">
<svg version="1.1" id="Calque_1" xmlns="http://www.w3.org/2000/svg" xmlns:xlink="http://www.w3.org/1999/xlink" x="0px" y="0px"
	 width="89.047px" height="88.868px" viewBox="0 0 89.047 88.868" enable-background="new 0 0 89.047 88.868" xml:space="preserve">
<g>
	<g>
		<path fill-rule="evenodd" clip-rule="evenodd" d="M39.823,0.298c21.252-2.212,34.485,8.195,42.372,20.686
			c3.669,5.809,6.105,11.74,6.674,18.684c2.263,27.709-17.271,47.293-40.038,49.046C22.779,90.72,2.107,72.925,0.119,48.342
			c-0.944-11.669,3.952-23.938,7.34-29.027C13.607,10.083,24.624,1.88,39.823,0.298z"/>
		<path fill-rule="evenodd" clip-rule="evenodd" fill="#FFFFFF" d="M55.837,62.69c2.354,2.834,3.168,9.938-2.669,9.342
			c-2.022-0.206-3.409-1.418-3.67-4.004c0.368,6.293-9.563,7.191-9.676,0.668c-3.385,8.043-13.06-0.274-6.34-6.006
			c-12.122,1.22-20.932-5.25-22.354-14.68C8.85,32.896,16.02,23.085,27.143,21.984c9.242-0.914,25.195-0.853,34.366,0
			c11.339,1.057,17.638,10.014,16.682,23.357C77.401,56.361,69.387,63.955,55.837,62.69z M23.14,34.998
			c-6.808,5.955-4.189,21.578,7.006,21.688c15.688,0.148,13.756-26.241-1.334-24.022C26.279,33.034,24.618,33.706,23.14,34.998z
			 M58.84,56.685c15.113,0.145,14.02-26.279-1.335-24.022C43.678,34.694,46.062,56.562,58.84,56.685z"/>
		<path fill-rule="evenodd" clip-rule="evenodd" d="M28.812,32.663c15.09-2.219,17.022,24.171,1.334,24.022
			c-11.195-0.109-13.814-15.732-7.006-21.688C24.618,33.706,26.279,33.034,28.812,32.663z"/>
		<path fill-rule="evenodd" clip-rule="evenodd" d="M57.505,32.663C72.86,30.406,73.954,56.83,58.84,56.685
			C46.062,56.562,43.678,34.694,57.505,32.663z"/>
	</g>
	<path fill-rule="evenodd" clip-rule="evenodd" d="M41.901,58.627c-1.32,1.321-1.554,3.228-0.522,4.259
		c0.766,0.765,2.012,0.833,3.144,0.276c1.132,0.557,2.38,0.488,3.146-0.276c1.031-1.031,0.797-2.938-0.523-4.259
		c-0.715-0.715-1.602-1.108-2.429-1.158c-0.006,0-0.011,0-0.017,0c-0.059-0.005-0.118-0.005-0.177-0.005s-0.116,0-0.177,0.005
		c-0.004,0-0.01,0-0.016,0C43.504,57.519,42.617,57.913,41.901,58.627z"/>
</g>
</svg>
